<svg id="svg" version="1.1" xmlns="http://www.w3.org/2000/svg" xmlns:xlink="http://www.w3.org/1999/xlink" width="400" height="400" viewBox="0, 0, 400,400"><g id="svgg"><path id="path0" d="M191.600 52.853 C 187.310 53.029,182.270 53.450,180.400 53.788 C 178.530 54.127,175.716 54.580,174.148 54.794 C 172.579 55.008,170.869 55.343,170.348 55.537 C 169.826 55.732,168.500 56.019,167.400 56.175 C 166.300 56.332,164.590 56.711,163.600 57.019 C 162.610 57.326,160.180 58.052,158.200 58.631 C 153.112 60.118,149.970 61.183,148.738 61.837 C 148.154 62.146,147.434 62.406,147.138 62.414 C 146.842 62.421,145.880 62.775,145.000 63.200 C 144.120 63.625,143.254 63.979,143.075 63.986 C 142.333 64.017,130.051 69.994,127.000 71.809 C 126.120 72.333,124.952 72.995,124.403 73.281 C 106.823 82.442,83.835 105.993,72.357 126.600 C 69.440 131.838,64.000 143.205,64.000 144.063 C 64.000 144.292,63.738 145.046,63.418 145.740 C 61.726 149.404,59.020 158.230,57.779 164.134 C 57.463 165.638,57.117 167.010,57.010 167.183 C 56.904 167.356,56.540 169.333,56.203 171.577 C 55.866 173.821,55.426 176.409,55.225 177.328 C 53.757 184.045,53.884 212.642,55.419 221.000 C 57.504 232.354,59.798 241.232,61.843 245.860 C 62.149 246.554,62.406 247.364,62.414 247.660 C 62.421 247.957,62.775 248.920,63.200 249.800 C 63.625 250.680,63.979 251.614,63.986 251.876 C 64.007 252.601,69.635 264.542,71.209 267.200 C 71.404 267.530,72.415 269.315,73.455 271.166 C 84.059 290.040,100.448 307.532,118.600 319.350 C 120.580 320.639,122.692 322.036,123.294 322.455 C 123.896 322.873,124.796 323.401,125.294 323.628 C 125.792 323.855,126.920 324.472,127.800 324.999 C 129.715 326.145,139.833 331.200,140.213 331.200 C 140.359 331.200,141.046 331.453,141.740 331.761 C 146.615 333.932,147.749 334.402,148.148 334.414 C 148.397 334.421,149.320 334.775,150.200 335.200 C 151.080 335.625,152.124 335.979,152.520 335.986 C 152.916 335.994,153.726 336.238,154.320 336.529 C 154.914 336.819,157.290 337.552,159.600 338.157 C 161.910 338.762,164.700 339.507,165.800 339.812 C 166.900 340.118,168.610 340.484,169.600 340.625 C 170.590 340.767,172.390 341.119,173.600 341.408 C 174.810 341.697,176.970 342.055,178.400 342.205 C 179.830 342.354,182.710 342.728,184.800 343.036 C 189.269 343.694,208.623 343.794,213.000 343.182 C 214.540 342.967,217.510 342.609,219.600 342.388 C 221.690 342.166,224.750 341.702,226.400 341.356 C 234.210 339.718,238.720 338.676,240.000 338.213 C 240.770 337.935,242.067 337.587,242.883 337.439 C 243.699 337.291,244.869 336.908,245.483 336.588 C 246.097 336.267,246.960 335.998,247.400 335.989 C 247.840 335.980,248.920 335.625,249.800 335.200 C 250.680 334.775,251.603 334.421,251.852 334.414 C 252.100 334.406,253.360 333.935,254.652 333.366 C 255.943 332.797,257.540 332.098,258.200 331.813 C 260.197 330.951,270.097 325.995,271.677 325.068 C 275.495 322.824,277.912 321.349,279.764 320.129 L 281.782 318.800 289.085 318.800 L 296.387 318.800 297.694 317.633 L 299.000 316.466 299.107 280.733 C 299.223 241.840,299.295 243.133,296.944 242.151 C 294.950 241.318,199.415 241.332,197.419 242.166 C 195.110 243.131,195.200 241.578,195.200 280.299 L 195.200 316.250 196.426 317.425 L 197.652 318.600 226.393 318.800 C 242.200 318.910,255.254 319.120,255.400 319.266 C 255.630 319.497,253.374 320.681,249.000 322.626 C 244.081 324.813,236.077 327.299,229.200 328.775 C 221.466 330.436,218.846 330.841,212.200 331.406 C 198.034 332.609,181.724 331.704,171.400 329.143 C 170.520 328.924,168.810 328.518,167.600 328.239 C 166.390 327.961,164.770 327.531,164.000 327.285 C 163.230 327.038,160.980 326.362,159.000 325.782 C 153.797 324.257,149.089 322.340,141.600 318.694 C 127.832 311.992,117.546 304.881,106.800 294.638 C 93.413 281.877,81.330 264.454,75.428 249.400 C 71.433 239.213,69.559 232.570,67.642 221.800 C 64.398 203.572,65.375 181.524,70.203 164.000 C 70.779 161.910,71.522 159.122,71.855 157.805 C 72.188 156.488,72.602 155.228,72.775 155.005 C 72.948 154.782,73.213 154.060,73.364 153.400 C 74.816 147.035,83.693 129.798,89.946 121.200 C 105.120 100.338,123.701 85.495,147.600 75.145 C 150.130 74.049,152.491 72.997,152.847 72.806 C 154.329 72.012,162.122 69.577,166.400 68.571 C 167.610 68.287,169.320 67.879,170.200 67.664 C 174.298 66.665,178.114 65.971,181.600 65.591 C 183.690 65.364,186.480 65.004,187.800 64.792 C 191.709 64.164,209.852 64.310,215.167 65.012 C 229.378 66.891,241.798 69.860,248.660 73.020 C 249.354 73.339,250.104 73.600,250.328 73.600 C 250.552 73.600,251.245 73.861,251.868 74.180 C 252.490 74.499,255.610 76.036,258.800 77.596 C 264.954 80.604,268.121 82.293,270.400 83.779 C 271.170 84.281,273.420 85.744,275.400 87.029 C 278.817 89.247,286.813 95.396,289.400 97.796 C 300.769 108.340,311.034 120.611,315.837 129.400 C 316.078 129.840,316.686 130.920,317.190 131.800 C 322.016 140.236,326.420 150.303,328.739 158.200 C 329.191 159.740,329.845 161.947,330.191 163.105 C 330.890 165.445,331.784 169.647,332.423 173.600 C 332.654 175.030,333.139 177.820,333.500 179.800 C 334.313 184.250,334.706 208.534,334.046 213.472 C 332.553 224.648,331.597 229.174,328.782 238.400 C 328.345 239.830,327.991 241.169,327.994 241.376 C 328.006 242.154,323.806 252.466,322.201 255.600 C 318.826 262.189,317.276 264.831,313.636 270.200 C 311.996 272.620,309.696 276.031,308.527 277.780 L 306.400 280.961 306.406 288.780 C 306.414 298.305,306.455 298.405,309.264 295.563 C 318.724 285.991,331.021 265.909,336.796 250.600 C 338.958 244.868,339.806 242.359,340.579 239.400 C 340.867 238.300,341.288 236.950,341.516 236.400 C 342.791 233.319,345.036 221.828,345.657 215.200 C 346.754 203.483,346.185 180.935,344.605 173.600 C 344.298 172.170,343.937 170.280,343.805 169.400 C 343.494 167.339,342.164 161.571,341.406 159.000 C 341.082 157.900,340.646 156.370,340.437 155.600 C 340.228 154.830,339.587 152.940,339.013 151.400 C 338.438 149.860,337.718 147.880,337.413 147.000 C 335.755 142.221,334.632 139.649,331.124 132.600 C 327.906 126.135,321.852 116.320,318.047 111.400 C 316.358 109.216,316.371 109.233,314.817 107.200 C 306.994 96.965,289.784 81.179,281.400 76.549 C 280.740 76.184,278.992 75.100,277.515 74.139 C 273.385 71.451,260.754 65.216,255.000 63.024 C 253.460 62.438,251.840 61.806,251.400 61.620 C 250.267 61.142,246.288 59.842,243.000 58.875 C 236.707 57.025,234.489 56.438,232.277 56.038 C 230.999 55.808,229.795 55.521,229.602 55.401 C 229.409 55.282,227.754 55.001,225.925 54.777 C 224.096 54.553,221.340 54.118,219.800 53.809 C 218.260 53.500,213.670 53.140,209.600 53.009 C 205.530 52.879,201.570 52.718,200.800 52.652 C 200.030 52.587,195.890 52.677,191.600 52.853 M126.400 97.210 C 117.369 99.264,111.755 104.169,108.786 112.600 L 107.800 115.400 107.800 194.000 L 107.800 272.600 108.785 275.200 C 111.620 282.679,115.999 287.058,123.275 289.687 L 125.800 290.600 154.333 290.600 L 182.865 290.600 184.024 289.303 C 185.603 287.536,185.850 286.284,184.993 284.384 C 183.564 281.216,185.548 281.424,154.600 281.200 L 127.000 281.000 125.044 280.056 C 120.194 277.717,117.766 273.938,117.171 267.800 C 116.710 263.050,116.718 124.449,117.179 119.800 C 117.834 113.199,120.863 109.015,126.216 107.317 C 129.106 106.400,204.514 105.657,205.900 106.532 C 206.280 106.771,206.401 109.460,206.402 117.724 C 206.405 132.406,206.770 134.235,210.642 138.988 C 215.054 144.404,217.846 145.200,232.425 145.200 C 242.168 145.200,243.544 145.277,243.757 145.833 C 243.891 146.181,244.004 150.096,244.009 154.533 C 244.016 161.547,244.115 162.815,244.765 164.247 C 246.228 167.468,249.232 168.201,251.786 165.959 L 253.200 164.717 253.200 150.750 L 253.200 136.782 251.500 134.920 C 250.565 133.896,246.460 129.625,242.378 125.429 C 238.296 121.233,230.556 113.235,225.178 107.657 C 219.800 102.078,214.983 97.353,214.474 97.157 C 213.326 96.715,128.353 96.766,126.400 97.210 M218.705 114.733 C 221.208 117.286,231.107 127.782,234.729 131.724 C 238.889 136.250,239.084 136.132,227.727 135.937 C 215.821 135.731,215.857 135.770,215.672 122.861 C 215.509 111.433,215.498 111.461,218.705 114.733 M155.742 127.192 C 130.859 127.431,132.673 127.123,132.202 131.184 C 131.999 132.936,132.088 133.809,132.564 134.730 L 133.195 135.951 161.498 136.076 C 177.064 136.144,190.358 136.064,191.040 135.898 C 193.985 135.180,195.182 130.277,192.975 127.974 L 191.850 126.800 184.625 126.892 C 180.651 126.942,167.654 127.077,155.742 127.192 M156.600 150.393 C 139.657 150.550,133.986 150.723,133.321 151.103 C 130.888 152.494,130.422 155.916,132.367 158.094 L 133.534 159.400 160.903 159.511 C 191.077 159.633,190.655 159.663,192.285 157.241 C 195.364 152.666,192.339 149.953,184.320 150.093 C 181.394 150.145,168.920 150.280,156.600 150.393 M275.400 167.443 C 274.960 167.555,273.250 167.981,271.600 168.390 C 256.066 172.239,247.000 184.257,247.000 201.000 C 247.000 213.732,253.382 225.534,262.600 229.850 C 263.260 230.159,264.070 230.581,264.400 230.787 C 267.965 233.015,275.265 234.567,280.800 234.272 C 284.216 234.090,290.369 232.779,291.400 232.013 C 291.620 231.850,292.383 231.520,293.095 231.281 C 308.619 226.060,317.202 202.958,309.620 186.800 C 306.059 179.210,299.426 172.877,291.800 169.785 C 287.366 167.987,278.336 166.697,275.400 167.443 M134.000 173.490 C 130.920 174.046,130.009 179.273,132.620 181.407 L 133.800 182.371 161.858 182.386 L 189.915 182.400 191.158 181.240 C 193.136 179.392,192.696 174.829,190.422 173.612 C 189.664 173.206,136.210 173.090,134.000 173.490 M285.638 179.213 C 295.815 182.641,302.025 191.452,301.492 201.706 C 299.961 231.145,257.662 230.461,257.829 201.000 C 257.916 185.819,272.148 174.668,285.638 179.213 M215.321 187.205 C 212.260 188.437,212.684 192.340,216.281 196.053 C 219.434 199.306,219.314 199.360,208.395 199.645 C 203.228 199.780,198.460 200.021,197.800 200.181 C 186.775 202.846,183.480 205.502,155.604 234.184 L 150.607 239.325 148.404 238.806 C 139.030 236.600,131.036 241.544,129.633 250.415 C 126.890 267.771,148.504 274.742,156.939 259.221 C 157.867 257.514,158.297 250.805,157.658 248.020 C 157.131 245.726,156.080 247.034,169.457 233.336 C 175.868 226.771,181.988 220.488,183.057 219.374 C 190.594 211.517,195.663 209.433,209.200 208.623 C 220.383 207.954,220.145 207.804,215.586 212.645 C 212.126 216.319,211.743 218.265,213.996 220.731 C 216.289 223.241,218.720 222.702,223.041 218.724 C 238.041 204.916,238.063 204.795,227.453 194.551 C 219.709 187.075,218.085 186.091,215.321 187.205 M227.676 251.301 C 227.853 251.576,227.953 255.220,227.899 259.400 L 227.800 267.000 216.600 267.107 C 206.425 267.204,205.354 267.151,204.900 266.530 C 204.265 265.663,204.194 252.332,204.818 251.165 C 205.336 250.199,227.048 250.328,227.676 251.301 M257.747 251.542 C 258.333 252.189,258.405 253.216,258.309 259.642 L 258.200 267.000 247.309 267.106 L 236.418 267.213 236.195 266.306 C 236.072 265.808,236.023 262.345,236.086 258.611 L 236.200 251.823 237.200 251.317 C 239.000 250.407,256.898 250.603,257.747 251.542 M290.206 251.700 C 290.328 252.195,290.376 255.840,290.314 259.800 L 290.200 267.000 279.600 267.112 C 265.565 267.261,267.200 268.295,267.200 259.272 C 267.200 253.963,267.341 251.619,267.680 251.280 C 268.030 250.930,271.118 250.800,279.072 250.800 L 289.985 250.800 290.206 251.700 M227.757 276.233 C 228.114 277.162,228.054 287.120,227.690 287.345 C 226.864 287.855,205.607 288.104,205.011 287.610 C 204.281 287.003,204.117 277.676,204.814 276.374 C 205.394 275.290,227.344 275.155,227.757 276.233 M257.968 276.162 C 258.635 276.966,258.663 286.602,258.000 287.400 C 257.362 288.169,237.039 288.311,236.568 287.549 C 236.118 286.820,235.973 277.724,236.394 276.616 L 236.780 275.600 247.141 275.600 C 255.551 275.600,257.590 275.706,257.968 276.162 M290.400 281.332 C 290.510 284.374,290.456 287.119,290.280 287.432 C 289.707 288.450,267.764 288.255,267.214 287.226 C 266.688 286.243,266.671 277.991,267.192 276.620 L 267.585 275.588 278.892 275.694 L 290.200 275.800 290.400 281.332 M227.800 303.200 L 227.800 309.400 216.649 309.506 C 203.169 309.635,204.400 310.266,204.400 303.231 C 204.400 296.119,203.154 296.767,216.586 296.894 L 227.800 297.000 227.800 303.200 M257.920 297.280 C 258.246 297.606,258.400 299.502,258.400 303.200 C 258.400 306.898,258.246 308.794,257.920 309.120 C 257.412 309.628,238.303 309.845,237.033 309.357 C 236.198 309.037,236.072 297.399,236.900 297.065 C 238.049 296.601,257.440 296.800,257.920 297.280 M290.310 303.106 L 290.421 309.212 289.384 309.606 C 287.820 310.201,268.283 310.123,267.680 309.520 C 267.160 309.000,266.969 297.564,267.473 297.061 C 267.623 296.911,272.798 296.836,278.973 296.894 L 290.200 297.000 290.310 303.106 " stroke="none" fill="#1a3f65" fill-rule="evenodd"></path><path id="path1" d="M0.000 200.000 L 0.000 400.000 200.000 400.000 L 400.000 400.000 400.000 200.000 L 400.000 0.000 200.000 0.000 L 0.000 0.000 0.000 200.000 M209.600 53.009 C 213.670 53.140,218.260 53.500,219.800 53.809 C 221.340 54.118,224.096 54.553,225.925 54.777 C 227.754 55.001,229.409 55.282,229.602 55.401 C 229.795 55.521,230.999 55.808,232.277 56.038 C 234.489 56.438,236.707 57.025,243.000 58.875 C 246.288 59.842,250.267 61.142,251.400 61.620 C 251.840 61.806,253.460 62.438,255.000 63.024 C 260.754 65.216,273.385 71.451,277.515 74.139 C 278.992 75.100,280.740 76.184,281.400 76.549 C 289.784 81.179,306.994 96.965,314.817 107.200 C 316.371 109.233,316.358 109.216,318.047 111.400 C 321.852 116.320,327.906 126.135,331.124 132.600 C 334.632 139.649,335.755 142.221,337.413 147.000 C 337.718 147.880,338.438 149.860,339.013 151.400 C 339.587 152.940,340.228 154.830,340.437 155.600 C 340.646 156.370,341.082 157.900,341.406 159.000 C 342.164 161.571,343.494 167.339,343.805 169.400 C 343.937 170.280,344.298 172.170,344.605 173.600 C 346.185 180.935,346.754 203.483,345.657 215.200 C 345.036 221.828,342.791 233.319,341.516 236.400 C 341.288 236.950,340.867 238.300,340.579 239.400 C 337.789 250.073,331.143 264.698,323.862 276.192 C 316.986 287.047,307.631 298.525,306.769 297.163 C 306.573 296.854,306.409 293.081,306.406 288.780 L 306.400 280.961 308.527 277.780 C 309.696 276.031,311.996 272.620,313.636 270.200 C 317.276 264.831,318.826 262.189,322.201 255.600 C 323.806 252.466,328.006 242.154,327.994 241.376 C 327.991 241.169,328.345 239.830,328.782 238.400 C 331.597 229.174,332.553 224.648,334.046 213.472 C 334.706 208.534,334.313 184.250,333.500 179.800 C 333.139 177.820,332.654 175.030,332.423 173.600 C 331.784 169.647,330.890 165.445,330.191 163.105 C 329.845 161.947,329.191 159.740,328.739 158.200 C 326.420 150.303,322.016 140.236,317.190 131.800 C 316.686 130.920,316.078 129.840,315.837 129.400 C 311.034 120.611,300.769 108.340,289.400 97.796 C 286.813 95.396,278.817 89.247,275.400 87.029 C 273.420 85.744,271.170 84.281,270.400 83.779 C 268.121 82.293,264.954 80.604,258.800 77.596 C 255.610 76.036,252.490 74.499,251.868 74.180 C 251.245 73.861,250.552 73.600,250.328 73.600 C 250.104 73.600,249.354 73.339,248.660 73.020 C 241.798 69.860,229.378 66.891,215.167 65.012 C 209.852 64.310,191.709 64.164,187.800 64.792 C 186.480 65.004,183.690 65.364,181.600 65.591 C 178.114 65.971,174.298 66.665,170.200 67.664 C 169.320 67.879,167.610 68.287,166.400 68.571 C 162.122 69.577,154.329 72.012,152.847 72.806 C 152.491 72.997,150.130 74.049,147.600 75.145 C 139.063 78.842,127.682 85.091,121.685 89.375 C 108.457 98.825,93.925 114.204,85.862 127.287 C 80.788 135.519,74.396 148.874,73.364 153.400 C 73.213 154.060,72.948 154.782,72.775 155.005 C 72.602 155.228,72.188 156.488,71.855 157.805 C 71.522 159.122,70.779 161.910,70.203 164.000 C 66.067 179.009,64.610 199.549,66.603 214.736 C 68.383 228.302,70.657 237.233,75.428 249.400 C 81.330 264.454,93.413 281.877,106.800 294.638 C 109.650 297.355,110.840 298.407,115.424 302.261 C 126.341 311.441,145.681 321.880,159.000 325.782 C 160.980 326.362,163.230 327.038,164.000 327.285 C 164.770 327.531,166.390 327.961,167.600 328.239 C 168.810 328.518,170.520 328.924,171.400 329.143 C 184.328 332.351,208.497 332.858,222.200 330.210 C 233.953 327.938,242.477 325.526,249.000 322.626 C 253.374 320.681,255.630 319.497,255.400 319.266 C 255.254 319.120,242.200 318.910,226.393 318.800 L 197.652 318.600 196.426 317.425 L 195.200 316.250 195.200 280.299 C 195.200 241.578,195.110 243.131,197.419 242.166 C 199.415 241.332,294.950 241.318,296.944 242.151 C 299.295 243.133,299.223 241.840,299.107 280.733 L 299.000 316.466 297.694 317.633 L 296.387 318.800 289.085 318.800 L 281.782 318.800 279.764 320.129 C 277.912 321.349,275.495 322.824,271.677 325.068 C 270.097 325.995,260.197 330.951,258.200 331.813 C 257.540 332.098,255.943 332.797,254.652 333.366 C 253.360 333.935,252.100 334.406,251.852 334.414 C 251.603 334.421,250.680 334.775,249.800 335.200 C 248.920 335.625,247.840 335.980,247.400 335.989 C 246.960 335.998,246.097 336.267,245.483 336.588 C 244.869 336.908,243.699 337.291,242.883 337.439 C 242.067 337.587,240.770 337.935,240.000 338.213 C 238.720 338.676,234.210 339.718,226.400 341.356 C 224.750 341.702,221.690 342.166,219.600 342.388 C 217.510 342.609,214.540 342.967,213.000 343.182 C 208.623 343.794,189.269 343.694,184.800 343.036 C 182.710 342.728,179.830 342.354,178.400 342.205 C 176.970 342.055,174.810 341.697,173.600 341.408 C 172.390 341.119,170.590 340.767,169.600 340.625 C 168.610 340.484,166.900 340.118,165.800 339.812 C 164.700 339.507,161.910 338.762,159.600 338.157 C 157.290 337.552,154.914 336.819,154.320 336.529 C 153.726 336.238,152.916 335.994,152.520 335.986 C 152.124 335.979,151.080 335.625,150.200 335.200 C 149.320 334.775,148.397 334.421,148.148 334.414 C 147.749 334.402,146.615 333.932,141.740 331.761 C 141.046 331.453,140.359 331.200,140.213 331.200 C 139.833 331.200,129.715 326.145,127.800 324.999 C 126.920 324.472,125.792 323.855,125.294 323.628 C 124.796 323.401,123.896 322.873,123.294 322.455 C 122.692 322.036,120.580 320.639,118.600 319.350 C 102.532 308.890,88.480 294.688,77.454 277.766 C 76.295 275.987,74.495 273.017,73.455 271.166 C 72.415 269.315,71.404 267.530,71.209 267.200 C 69.635 264.542,64.007 252.601,63.986 251.876 C 63.979 251.614,63.625 250.680,63.200 249.800 C 62.775 248.920,62.421 247.957,62.414 247.660 C 62.406 247.364,62.149 246.554,61.843 245.860 C 59.798 241.232,57.504 232.354,55.419 221.000 C 53.884 212.642,53.757 184.045,55.225 177.328 C 55.426 176.409,55.866 173.821,56.203 171.577 C 56.540 169.333,56.904 167.356,57.010 167.183 C 57.117 167.010,57.463 165.638,57.779 164.134 C 59.020 158.230,61.726 149.404,63.418 145.740 C 63.738 145.046,64.000 144.292,64.000 144.063 C 64.000 143.605,66.312 138.486,68.906 133.200 C 80.003 110.587,98.378 90.054,120.203 75.880 C 121.965 74.736,123.855 73.566,124.403 73.281 C 124.952 72.995,126.120 72.333,127.000 71.809 C 130.051 69.994,142.333 64.017,143.075 63.986 C 143.254 63.979,144.120 63.625,145.000 63.200 C 145.880 62.775,146.842 62.421,147.138 62.414 C 147.434 62.406,148.154 62.146,148.738 61.837 C 149.970 61.183,153.112 60.118,158.200 58.631 C 160.180 58.052,162.610 57.326,163.600 57.019 C 164.590 56.711,166.300 56.332,167.400 56.175 C 168.500 56.019,169.826 55.732,170.348 55.537 C 170.869 55.343,172.579 55.008,174.148 54.794 C 175.716 54.580,178.530 54.127,180.400 53.788 C 183.661 53.197,197.891 52.405,200.800 52.652 C 201.570 52.718,205.530 52.879,209.600 53.009 M214.474 97.157 C 214.983 97.353,219.800 102.078,225.178 107.657 C 230.556 113.235,238.296 121.233,242.378 125.429 C 246.460 129.625,250.565 133.896,251.500 134.920 L 253.200 136.782 253.200 150.750 L 253.200 164.717 251.786 165.959 C 249.232 168.201,246.228 167.468,244.765 164.247 C 244.115 162.815,244.016 161.547,244.009 154.533 C 244.004 150.096,243.891 146.181,243.757 145.833 C 243.544 145.277,242.168 145.200,232.425 145.200 C 217.846 145.200,215.054 144.404,210.642 138.988 C 206.770 134.235,206.405 132.406,206.402 117.724 C 206.401 109.460,206.280 106.771,205.900 106.532 C 204.514 105.657,129.106 106.400,126.216 107.317 C 120.863 109.015,117.834 113.199,117.179 119.800 C 116.718 124.449,116.710 263.050,117.171 267.800 C 117.766 273.938,120.194 277.717,125.044 280.056 L 127.000 281.000 154.600 281.200 C 185.548 281.424,183.564 281.216,184.993 284.384 C 185.850 286.284,185.603 287.536,184.024 289.303 L 182.865 290.600 154.333 290.600 L 125.800 290.600 123.275 289.687 C 115.999 287.058,111.620 282.679,108.785 275.200 L 107.800 272.600 107.800 194.000 L 107.800 115.400 108.786 112.600 C 111.755 104.169,117.369 99.264,126.400 97.210 C 128.353 96.766,213.326 96.715,214.474 97.157 M215.760 113.361 C 215.641 113.670,215.602 117.945,215.672 122.861 C 215.813 132.707,215.929 133.175,218.690 135.047 C 220.499 136.274,237.600 136.426,237.600 135.216 C 237.600 134.814,234.862 131.784,226.229 122.633 C 216.334 112.144,216.254 112.073,215.760 113.361 M192.975 127.974 C 195.182 130.277,193.985 135.180,191.040 135.898 C 190.358 136.064,177.064 136.144,161.498 136.076 L 133.195 135.951 132.564 134.730 C 132.088 133.809,131.999 132.936,132.202 131.184 C 132.673 127.123,130.859 127.431,155.742 127.192 C 167.654 127.077,180.651 126.942,184.625 126.892 L 191.850 126.800 192.975 127.974 M190.813 150.607 C 194.328 152.424,193.697 157.833,189.821 159.111 C 188.612 159.509,182.269 159.597,160.903 159.511 L 133.534 159.400 132.367 158.094 C 130.422 155.916,130.888 152.494,133.321 151.103 C 133.986 150.723,139.657 150.550,156.600 150.393 C 168.920 150.280,181.394 150.145,184.320 150.093 C 188.435 150.021,189.905 150.137,190.813 150.607 M287.200 168.339 C 296.501 170.810,303.040 175.732,308.288 184.212 C 317.996 199.899,309.665 225.708,293.095 231.281 C 292.383 231.520,291.620 231.850,291.400 232.013 C 290.369 232.779,284.216 234.090,280.800 234.272 C 275.265 234.567,267.965 233.015,264.400 230.787 C 264.070 230.581,263.260 230.159,262.600 229.850 C 248.794 223.386,242.509 201.087,250.134 185.619 C 254.542 176.676,261.858 170.804,271.600 168.390 C 273.250 167.981,274.960 167.555,275.400 167.443 C 277.065 167.020,284.306 167.570,287.200 168.339 M190.422 173.612 C 192.696 174.829,193.136 179.392,191.158 181.240 L 189.915 182.400 161.858 182.386 L 133.800 182.371 132.620 181.407 C 130.009 179.273,130.920 174.046,134.000 173.490 C 136.210 173.090,189.664 173.206,190.422 173.612 M273.584 179.341 C 263.336 182.705,257.891 190.191,257.829 201.000 C 257.662 230.461,299.961 231.145,301.492 201.706 C 302.277 186.599,287.515 174.769,273.584 179.341 M219.516 187.560 C 222.005 188.836,233.795 200.505,234.582 202.472 C 235.989 205.988,234.314 208.347,223.041 218.724 C 218.720 222.702,216.289 223.241,213.996 220.731 C 211.743 218.265,212.126 216.319,215.586 212.645 C 220.145 207.804,220.383 207.954,209.200 208.623 C 195.663 209.433,190.594 211.517,183.057 219.374 C 181.988 220.488,175.868 226.771,169.457 233.336 C 156.080 247.034,157.131 245.726,157.658 248.020 C 159.347 255.376,156.595 262.479,150.631 266.159 C 142.319 271.287,130.698 265.206,129.595 255.150 C 128.346 243.778,137.123 236.151,148.404 238.806 L 150.607 239.325 155.604 234.184 C 183.480 205.502,186.775 202.846,197.800 200.181 C 198.460 200.021,203.228 199.780,208.395 199.645 C 219.314 199.360,219.434 199.306,216.281 196.053 C 211.092 190.698,213.468 184.461,219.516 187.560 M204.818 251.165 C 204.194 252.332,204.265 265.663,204.900 266.530 C 205.354 267.151,206.425 267.204,216.600 267.107 L 227.800 267.000 227.899 259.400 C 227.953 255.220,227.853 251.576,227.676 251.301 C 227.048 250.328,205.336 250.199,204.818 251.165 M237.200 251.317 L 236.200 251.823 236.086 258.611 C 236.023 262.345,236.072 265.808,236.195 266.306 L 236.418 267.213 247.309 267.106 L 258.200 267.000 258.309 259.642 C 258.405 253.216,258.333 252.189,257.747 251.542 C 256.898 250.603,239.000 250.407,237.200 251.317 M267.680 251.280 C 267.341 251.619,267.200 253.963,267.200 259.272 C 267.200 268.295,265.565 267.261,279.600 267.112 L 290.200 267.000 290.314 259.800 C 290.376 255.840,290.328 252.195,290.206 251.700 L 289.985 250.800 279.072 250.800 C 271.118 250.800,268.030 250.930,267.680 251.280 M204.814 276.374 C 204.117 277.676,204.281 287.003,205.011 287.610 C 205.607 288.104,226.864 287.855,227.690 287.345 C 228.054 287.120,228.114 277.162,227.757 276.233 C 227.344 275.155,205.394 275.290,204.814 276.374 M236.394 276.616 C 235.973 277.724,236.118 286.820,236.568 287.549 C 237.039 288.311,257.362 288.169,258.000 287.400 C 258.663 286.602,258.635 276.966,257.968 276.162 C 257.590 275.706,255.551 275.600,247.141 275.600 L 236.780 275.600 236.394 276.616 M267.192 276.620 C 266.671 277.991,266.688 286.243,267.214 287.226 C 267.764 288.255,289.707 288.450,290.280 287.432 C 290.456 287.119,290.510 284.374,290.400 281.332 L 290.200 275.800 278.892 275.694 L 267.585 275.588 267.192 276.620 M204.886 297.274 C 204.155 298.005,204.211 308.545,204.949 309.157 C 205.337 309.480,208.756 309.582,216.649 309.506 L 227.800 309.400 227.800 303.200 L 227.800 297.000 216.586 296.894 C 208.199 296.815,205.250 296.910,204.886 297.274 M236.900 297.065 C 236.072 297.399,236.198 309.037,237.033 309.357 C 238.303 309.845,257.412 309.628,257.920 309.120 C 258.246 308.794,258.400 306.898,258.400 303.200 C 258.400 299.502,258.246 297.606,257.920 297.280 C 257.440 296.800,238.049 296.601,236.900 297.065 M267.473 297.061 C 266.969 297.564,267.160 309.000,267.680 309.520 C 268.283 310.123,287.820 310.201,289.384 309.606 L 290.421 309.212 290.310 303.106 L 290.200 297.000 278.973 296.894 C 272.798 296.836,267.623 296.911,267.473 297.061 " stroke="none" fill="#fbfbfb" fill-rule="evenodd"></path></g></svg>